<svg width="252" height="252" viewBox="0 0 252 252" fill="none" xmlns="http://www.w3.org/2000/svg">
<path d="M241.304 145.74L221.004 143.619L221.261 141.159L241.561 143.28L241.304 145.74ZM242.711 132.268L222.411 130.147L222.668 127.687L242.968 129.807L242.711 132.268ZM232.584 143.492L230.277 143.251L231.668 129.933L233.975 130.174L232.584 143.492Z" fill="white"/>
<path d="M233.202 158.595C232.771 159.994 232.086 161.131 231.148 162.007C230.203 162.903 229.056 163.477 227.705 163.73C226.374 163.989 224.911 163.872 223.315 163.381C221.719 162.889 220.433 162.159 219.459 161.19C218.504 160.228 217.888 159.11 217.611 157.839C217.328 156.587 217.402 155.261 217.833 153.862C218.257 152.483 218.942 151.345 219.886 150.45C220.831 149.554 221.969 148.977 223.3 148.718C224.65 148.465 226.124 148.584 227.72 149.076C229.316 149.567 230.591 150.294 231.546 151.257C232.52 152.226 233.146 153.346 233.423 154.618C233.7 155.89 233.626 157.215 233.202 158.595ZM231.162 157.967C231.472 156.962 231.509 156.035 231.274 155.186C231.04 154.337 230.559 153.585 229.833 152.93C229.121 152.301 228.174 151.804 226.991 151.44C225.829 151.082 224.766 150.96 223.804 151.073C222.835 151.207 222.015 151.558 221.344 152.128C220.672 152.698 220.181 153.485 219.872 154.49C219.562 155.495 219.525 156.422 219.76 157.271C219.995 158.12 220.478 158.862 221.21 159.497C221.936 160.152 222.88 160.658 224.043 161.016C225.225 161.38 226.291 161.493 227.239 161.354C228.202 161.24 229.019 160.898 229.691 160.329C230.362 159.759 230.853 158.971 231.162 157.967Z" fill="white"/>
<path d="M223.726 180.285L222.564 182.609L211.608 169.943L212.714 167.73L229.421 168.888L228.163 171.405L214.388 169.984L223.726 180.285Z" fill="white"/>
<path d="M203.822 181.97C204.675 180.78 205.697 179.902 206.889 179.335C208.069 178.786 209.331 178.599 210.675 178.776C212.036 178.965 213.395 179.545 214.753 180.518C216.111 181.49 217.089 182.584 217.689 183.8C218.306 185.028 218.55 186.281 218.421 187.558C218.292 188.835 217.814 190.052 216.986 191.209C216.145 192.382 215.179 193.199 214.088 193.66C212.985 194.138 211.842 194.283 210.658 194.094C209.491 193.918 208.371 193.445 207.299 192.677C207.014 192.473 206.76 192.278 206.537 192.094C206.315 191.909 206.123 191.733 205.963 191.568L213.238 181.411L215.023 182.69L208.378 191.967L208.915 190.792C210.122 191.656 211.292 191.987 212.426 191.785C213.548 191.6 214.493 190.971 215.262 189.898C215.85 189.077 216.167 188.226 216.214 187.347C216.266 186.496 216.051 185.645 215.57 184.793C215.095 183.971 214.354 183.199 213.348 182.479C212.359 181.77 211.385 181.326 210.424 181.145C209.463 180.964 208.574 181.037 207.756 181.364C206.943 181.72 206.23 182.325 205.618 183.18C204.958 184.102 204.599 184.974 204.543 185.796C204.475 186.635 204.617 187.446 204.968 188.23L202.903 189.148C202.561 188.421 202.361 187.657 202.302 186.854C202.231 186.067 202.319 185.255 202.564 184.416C202.815 183.607 203.234 182.791 203.822 181.97Z" fill="white"/>
<path d="M197.816 189.982L209.024 200.634L207.639 202.091L205.567 200.591C205.956 201.558 206.038 202.504 205.814 203.428C205.575 204.368 205.044 205.271 204.22 206.138C204.036 206.332 203.822 206.527 203.579 206.723C203.322 206.933 203.07 207.078 202.824 207.158L201.486 205.288C201.702 205.181 201.917 205.044 202.132 204.878C202.347 204.712 202.624 204.45 202.965 204.091C203.405 203.628 203.718 203.03 203.904 202.296C204.075 201.577 204.033 200.798 203.779 199.958C203.539 199.133 203.001 198.323 202.164 197.528L196.111 191.775L197.816 189.982Z" fill="white"/>
<path d="M193.28 220.46L184.203 207.789C183.759 207.168 183.253 206.834 182.685 206.784C182.117 206.734 181.556 206.908 181.003 207.304C180.517 207.652 180.158 208.036 179.926 208.456C179.694 208.876 179.538 209.33 179.457 209.819L177.547 208.639C177.68 208.011 177.943 207.404 178.335 206.819C178.711 206.245 179.242 205.713 179.929 205.22C180.566 204.764 181.239 204.447 181.948 204.269C182.669 204.107 183.372 204.149 184.055 204.395C184.734 204.67 185.37 205.203 185.963 205.996L194.895 218.466L193.28 220.46ZM186.147 220.167L184.904 218.433L194.005 211.913L195.248 213.648L186.147 220.167Z" fill="white"/>
<path d="M176.789 225.703C175.484 226.367 174.191 226.666 172.909 226.602C171.609 226.546 170.398 226.122 169.276 225.328C168.164 224.552 167.23 223.42 166.472 221.932C165.714 220.443 165.345 219.012 165.362 217.638C165.39 216.283 165.764 215.063 166.484 213.979C167.186 212.904 168.19 212.035 169.494 211.371C170.781 210.716 172.074 210.417 173.374 210.472C174.675 210.527 175.881 210.943 176.993 211.718C178.114 212.512 179.054 213.654 179.811 215.142C180.569 216.63 180.934 218.052 180.907 219.408C180.889 220.782 180.52 222.011 179.799 223.095C179.079 224.179 178.075 225.048 176.789 225.703ZM175.821 223.801C176.758 223.324 177.45 222.706 177.896 221.946C178.343 221.187 178.548 220.319 178.514 219.342C178.47 218.392 178.168 217.367 177.607 216.264C177.055 215.18 176.403 214.332 175.652 213.719C174.882 213.116 174.059 212.772 173.183 212.686C172.306 212.6 171.399 212.796 170.462 213.273C169.525 213.75 168.834 214.368 168.387 215.127C167.941 215.886 167.744 216.75 167.797 217.718C167.832 218.695 168.125 219.725 168.677 220.809C169.238 221.912 169.899 222.755 170.659 223.34C171.41 223.952 172.224 224.301 173.101 224.387C173.977 224.473 174.884 224.278 175.821 223.801Z" fill="white"/>
<path d="M154.105 238.524L150.314 223.405C150.129 222.665 149.781 222.168 149.271 221.913C148.761 221.658 148.176 221.614 147.516 221.779C146.936 221.925 146.461 222.15 146.091 222.455C145.721 222.761 145.409 223.126 145.154 223.551L143.81 221.752C144.165 221.217 144.632 220.749 145.212 220.348C145.772 219.953 146.462 219.652 147.282 219.447C148.042 219.256 148.784 219.208 149.509 219.303C150.239 219.417 150.877 219.714 151.422 220.194C151.953 220.699 152.348 221.429 152.609 222.383L156.339 237.262L154.105 238.524ZM147.577 235.633L147.059 233.563L157.917 230.84L158.436 232.91L147.577 235.633Z" fill="white"/>
<path d="M133.72 231.894C133.844 233.042 134.247 233.89 134.929 234.438C135.612 235.007 136.518 235.23 137.645 235.108C138.711 234.993 139.587 234.659 140.274 234.108C140.963 233.577 141.426 232.78 141.664 231.718L143.796 232.731C143.51 233.923 142.852 234.928 141.82 235.745C140.791 236.582 139.457 237.089 137.817 237.267C136.71 237.387 135.685 237.301 134.741 237.009C133.799 236.738 133.029 236.241 132.433 235.518C131.817 234.817 131.444 233.862 131.313 232.653L130.507 225.212C130.427 224.474 129.998 224.148 129.219 224.232C128.829 224.274 128.456 224.367 128.098 224.509L128.011 222.559C128.399 222.309 128.921 222.149 129.576 222.078C130.171 222.014 130.716 222.069 131.212 222.243C131.708 222.417 132.113 222.716 132.429 223.138C132.746 223.58 132.943 224.15 133.018 224.847L133.052 225.154L132.427 225.129C132.586 224.303 132.935 223.601 133.474 223.024C134.015 222.468 134.641 222.027 135.352 221.701C136.066 221.396 136.781 221.204 137.499 221.126C138.401 221.028 139.258 221.091 140.07 221.314C140.882 221.537 141.557 221.931 142.095 222.495C142.615 223.081 142.925 223.836 143.025 224.758C143.149 225.906 142.872 226.89 142.194 227.71C141.497 228.553 140.477 229.182 139.132 229.597L133.174 231.456L132.955 229.426L137.795 227.875C138.777 227.562 139.494 227.194 139.946 226.771C140.398 226.349 140.588 225.81 140.517 225.154C140.448 224.519 140.146 224.023 139.609 223.666C139.055 223.332 138.316 223.215 137.394 223.315C136.799 223.379 136.243 223.512 135.726 223.714C135.19 223.937 134.724 224.226 134.327 224.581C133.932 224.955 133.637 225.392 133.442 225.89C133.25 226.408 133.189 226.995 133.26 227.651L133.72 231.894Z" fill="white"/>
<path d="M111.631 236.986L118.662 230.677L119.281 230.122L124.619 225.331L124.452 228.419L114.75 237.155L111.631 236.986ZM122.333 244.688L123.552 222.146L126.023 222.279L124.804 244.822L122.333 244.688ZM118.378 231.931L112.096 221.526L115.091 221.688L120.522 230.653L118.378 231.931Z" fill="white"/>
<path d="M104.585 219.463C106.015 219.775 107.225 220.367 108.217 221.238C109.188 222.104 109.858 223.19 110.227 224.495C110.592 225.819 110.596 227.298 110.239 228.929C109.883 230.561 109.265 231.892 108.385 232.924C107.501 233.976 106.447 234.695 105.223 235.082C103.998 235.468 102.692 235.51 101.302 235.206C99.8919 234.898 98.7595 234.334 97.9046 233.514C97.0296 232.689 96.4448 231.696 96.15 230.534C95.8509 229.393 95.8422 228.177 96.124 226.888C96.1988 226.546 96.2771 226.236 96.3589 225.958C96.4407 225.681 96.5259 225.436 96.6146 225.223L108.82 227.891L108.351 230.036L97.2032 227.599L98.4947 227.628C98.1777 229.078 98.3362 230.284 98.9702 231.246C99.584 232.203 100.535 232.822 101.824 233.104C102.811 233.32 103.718 233.275 104.544 232.971C105.346 232.682 106.043 232.148 106.635 231.37C107.203 230.608 107.619 229.622 107.883 228.414C108.143 227.226 108.166 226.154 107.952 225.2C107.739 224.246 107.32 223.458 106.696 222.836C106.048 222.23 105.21 221.815 104.183 221.591C103.075 221.348 102.133 221.364 101.355 221.637C100.558 221.906 99.8685 222.357 99.287 222.99L97.628 221.456C98.1603 220.855 98.7837 220.368 99.498 219.997C100.192 219.621 100.973 219.38 101.84 219.274C102.683 219.184 103.598 219.247 104.585 219.463Z" fill="white"/>
<path d="M75.8857 219.755C75.3773 220.792 75.2646 221.724 75.5475 222.552C75.8214 223.398 76.4674 224.07 77.4855 224.57C78.448 225.042 79.3669 225.228 80.2421 225.13C81.1082 225.049 81.9255 224.623 82.6941 223.852L83.9542 225.848C83.0756 226.703 81.9822 227.2 80.6739 227.339C79.3566 227.497 77.9575 227.212 76.4767 226.486C75.4771 225.996 74.6564 225.375 74.0144 224.624C73.3633 223.891 72.9789 223.06 72.8612 222.13C72.7158 221.209 72.9109 220.202 73.4466 219.11L76.7421 212.391C77.0689 211.724 76.8806 211.219 76.1772 210.874C75.8255 210.701 75.4604 210.579 75.0818 210.509L76.0508 208.814C76.5118 208.81 77.0384 208.954 77.6308 209.244C78.1676 209.508 78.5989 209.845 78.9248 210.258C79.2507 210.67 79.4341 211.139 79.475 211.664C79.5068 212.208 79.3684 212.795 79.0597 213.424L78.9235 213.702L78.4091 213.346C78.9853 212.733 79.6553 212.327 80.419 212.127C81.1737 211.946 81.9387 211.908 82.714 212.013C83.4803 212.136 84.1873 212.357 84.8352 212.674C85.6497 213.074 86.3405 213.585 86.9077 214.208C87.4749 214.83 87.8353 215.524 87.9886 216.288C88.1144 217.061 87.9731 217.864 87.5645 218.697C87.0561 219.734 86.2961 220.418 85.2844 220.748C84.245 221.088 83.0463 221.074 81.6881 220.706L75.6593 219.093L76.5581 217.26L81.4778 218.537C82.4756 218.796 83.2783 218.869 83.886 218.753C84.4937 218.638 84.9427 218.284 85.2333 217.692C85.5147 217.118 85.5241 216.537 85.2614 215.949C84.9711 215.37 84.4095 214.877 83.5765 214.468C83.0397 214.205 82.4989 214.02 81.9541 213.914C81.3817 213.817 80.833 213.811 80.3081 213.899C79.7741 214.004 79.2917 214.215 78.8608 214.532C78.4207 214.867 78.0555 215.331 77.765 215.923L75.8857 219.755Z" fill="white"/>
<path d="M53.1002 219.905L64.3975 205.068C64.8721 204.445 65.0883 203.923 65.046 203.502C64.9912 203.097 64.7096 202.701 64.2011 202.314C63.873 202.064 63.5837 201.883 63.3329 201.77C63.0822 201.657 62.7265 201.528 62.2657 201.385L63.897 199.906C64.2469 199.991 64.5964 200.128 64.9455 200.316C65.3071 200.487 65.652 200.698 65.98 200.948C66.9806 201.71 67.5209 202.549 67.6008 203.465C67.6643 204.368 67.2714 205.378 66.4221 206.493L55.0686 221.403L53.1002 219.905Z" fill="white"/>
<path d="M47.0078 205.557C45.9653 204.529 45.2718 203.397 44.9276 202.16C44.5686 200.909 44.5884 199.626 44.9871 198.311C45.3712 197.011 46.1494 195.766 47.3217 194.577C48.4939 193.387 49.7346 192.584 51.0436 192.166C52.3382 191.763 53.6136 191.732 54.8699 192.072C56.1114 192.399 57.2535 193.076 58.2961 194.103C59.3239 195.116 60.0174 196.248 60.3763 197.499C60.7353 198.751 60.7227 200.026 60.3386 201.327C59.9399 202.642 59.1545 203.894 57.9822 205.083C56.81 206.273 55.5766 207.069 54.282 207.472C52.9729 207.89 51.6903 207.928 50.434 207.587C49.1778 207.247 48.0357 206.57 47.0078 205.557ZM48.5057 204.037C49.2546 204.775 50.0598 205.236 50.9212 205.419C51.7827 205.602 52.6714 205.523 53.5874 205.181C54.4742 204.839 55.3518 204.228 56.2201 203.347C57.074 202.48 57.6726 201.594 58.0159 200.688C58.3445 199.767 58.4109 198.877 58.2152 198.018C58.0194 197.159 57.5471 196.361 56.7982 195.623C56.0493 194.885 55.2441 194.424 54.3827 194.241C53.5212 194.058 52.6398 194.144 51.7385 194.501C50.8225 194.843 49.9376 195.447 49.0838 196.313C48.2154 197.194 47.6242 198.088 47.31 198.994C46.9667 199.9 46.893 200.783 47.0887 201.642C47.2845 202.5 47.7568 203.299 48.5057 204.037Z" fill="white"/>
<path d="M34.1333 190.396C33.2896 189.2 32.8081 187.962 32.6887 186.684C32.5574 185.389 32.8046 184.13 33.4302 182.907C34.0391 181.695 35.0258 180.608 36.3905 179.646C37.7552 178.683 39.1187 178.112 40.4811 177.934C41.8267 177.767 43.0874 177.962 44.2632 178.521C45.4272 179.062 46.431 179.931 47.2747 181.127C48.1065 182.306 48.5881 183.544 48.7193 184.839C48.8506 186.134 48.6118 187.387 48.003 188.598C47.3774 189.822 46.3822 190.915 45.0175 191.877C43.6528 192.84 42.2977 193.405 40.9521 193.571C39.5897 193.75 38.3206 193.561 37.1448 193.002C35.9689 192.444 34.9651 191.575 34.1333 190.396ZM35.8771 189.166C36.4831 190.025 37.1937 190.621 38.009 190.955C38.8243 191.288 39.713 191.367 40.6751 191.193C41.6085 191.014 42.5807 190.569 43.5916 189.856C44.5856 189.154 45.3319 188.388 45.8306 187.557C46.3174 186.709 46.5407 185.845 46.5004 184.966C46.4601 184.086 46.137 183.216 45.531 182.357C44.9249 181.498 44.2143 180.902 43.399 180.568C42.5837 180.235 41.7009 180.164 40.7507 180.355C39.7886 180.529 38.8105 180.966 37.8165 181.667C36.8056 182.38 36.0652 183.155 35.5952 183.991C35.0965 184.822 34.8673 185.677 34.9076 186.557C34.9479 187.437 35.271 188.307 35.8771 189.166Z" fill="white"/>
<path d="M21.4012 166.837L30.3171 169.959L31.1013 170.233L37.8708 172.604L35.0842 173.945L22.7557 169.651L21.4012 166.837ZM19.8066 179.925L40.1489 170.135L41.2218 172.364L20.8795 182.154L19.8066 179.925ZM29.0807 170.314L35.1733 159.797L36.4742 162.5L31.2332 171.577L29.0807 170.314Z" fill="white"/>
<path d="M21.4094 143.798L23.9149 143.24L26.1322 153.202L23.6267 153.759L21.4094 143.798Z" fill="white"/>
<path d="M9.32977 113.202L29.7254 113.99L29.6299 116.462L9.23431 115.674L9.32977 113.202ZM8.80714 126.737L29.2027 127.525L29.1073 129.997L8.71168 129.21L8.80714 126.737ZM18.1784 114.875L20.496 114.964L19.9794 128.345L17.6617 128.255L18.1784 114.875Z" fill="white"/>
<path d="M16.5723 99.7598C16.912 98.3359 17.522 97.1567 18.402 96.2222C19.2869 95.2676 20.3951 94.6206 21.7266 94.2812C23.0381 93.9371 24.506 93.9589 26.1304 94.3465C27.7548 94.7341 29.0844 95.3799 30.1192 96.2839C31.134 97.1831 31.8206 98.2584 32.1791 99.5097C32.5424 100.741 32.5541 102.068 32.2144 103.492C31.8794 104.896 31.2695 106.075 30.3846 107.03C29.4997 107.985 28.4016 108.634 27.0901 108.978C25.7586 109.317 24.2806 109.293 22.6563 108.906C21.0319 108.518 19.7123 107.875 18.6975 106.975C17.6627 106.071 16.966 104.994 16.6076 103.742C16.2491 102.491 16.2373 101.164 16.5723 99.7598ZM18.6479 100.255C18.4038 101.278 18.4263 102.205 18.7152 103.037C19.0042 103.869 19.532 104.589 20.2986 105.195C21.05 105.777 22.0273 106.212 23.2305 106.499C24.4137 106.781 25.4819 106.835 26.4351 106.66C27.3931 106.464 28.1889 106.061 28.8224 105.449C29.4559 104.837 29.8947 104.02 30.1388 102.997C30.3828 101.974 30.3604 101.047 30.0714 100.215C29.7824 99.3829 29.2522 98.6735 28.4808 98.0867C27.7142 97.4799 26.7393 97.0353 25.5562 96.7529C24.3529 96.4658 23.2823 96.4223 22.3443 96.6224C21.3911 96.7977 20.5977 97.1912 19.9642 97.8031C19.3307 98.415 18.8919 99.2323 18.6479 100.255Z" fill="white"/>
<path d="M24.6629 77.3727L25.6748 74.9802L37.4103 86.9281L36.4465 89.2067L19.6995 89.1075L20.7958 86.5156L34.6334 87.0631L24.6629 77.3727Z" fill="white"/>
<path d="M44.418 74.3974C43.6413 75.6382 42.6758 76.5783 41.5214 77.2178C40.378 77.8398 39.13 78.1044 37.7773 78.0116C36.4071 77.9079 35.0143 77.413 33.5988 76.5269C32.1833 75.6408 31.1383 74.6097 30.4639 73.4334C29.772 72.2463 29.4505 71.0113 29.4995 69.7285C29.5485 68.4457 29.9504 67.2014 30.7052 65.9956C31.471 64.7724 32.384 63.8967 33.4443 63.3686C34.5156 62.823 35.6478 62.6074 36.8409 62.7219C38.0166 62.8255 39.1636 63.2274 40.282 63.9275C40.5791 64.1135 40.8445 64.2918 41.0782 64.4624C41.3119 64.633 41.514 64.796 41.6843 64.9513L35.055 75.5413L33.1938 74.3762L39.2489 64.7036L38.7858 65.9097C37.5276 65.122 36.3389 64.8644 35.2198 65.1367C34.1116 65.3916 33.2075 66.0783 32.5073 67.1967C31.9713 68.053 31.7073 68.9215 31.7154 69.8022C31.717 70.6545 31.9841 71.4906 32.5168 72.3105C33.0429 73.102 33.8302 73.826 34.8787 74.4823C35.9097 75.1278 36.9104 75.5109 37.8806 75.6318C38.8508 75.7527 39.7338 75.6244 40.5296 75.2469C41.3188 74.841 41.9924 74.1924 42.5503 73.3012C43.152 72.34 43.4553 71.4475 43.4602 70.6236C43.4762 69.7823 43.2844 68.9812 42.885 68.2204L44.8887 67.1761C45.275 67.8801 45.5225 68.6309 45.6312 69.4287C45.7508 70.209 45.7142 71.0252 45.5213 71.8773C45.3218 72.7011 44.9541 73.5411 44.418 74.3974Z" fill="white"/>
<path d="M49.8517 66.0653L38.0068 56.1258L39.2989 54.5859L41.4602 55.9554C41.012 55.0141 40.8713 54.0752 41.0382 53.1387C41.2183 52.1864 41.6927 51.2522 42.4613 50.3362C42.6336 50.1309 42.835 49.923 43.0653 49.7126C43.309 49.4864 43.5511 49.3262 43.7916 49.232L45.2426 51.0149C45.0337 51.1356 44.8273 51.2853 44.6234 51.4641C44.4195 51.6429 44.1586 51.9219 43.8405 52.3009C43.4297 52.7905 43.1544 53.4072 43.0145 54.1512C42.888 54.8793 42.9777 55.6544 43.2838 56.4764C43.574 57.2852 44.1614 58.0606 45.0458 58.8028L51.4421 64.1701L49.8517 66.0653Z" fill="white"/>
<path d="M52.3517 35.4199L62.1958 47.5042C62.6776 48.0956 63.2035 48.3985 63.7736 48.4127C64.3436 48.427 64.8924 48.2193 65.4199 47.7896C65.8834 47.412 66.2179 47.0065 66.4234 46.5732C66.6289 46.1399 66.7568 45.6767 66.8072 45.1836L68.7871 46.2432C68.6929 46.8784 68.4682 47.5002 68.113 48.1087C67.7737 48.7042 67.2764 49.2688 66.621 49.8027C66.0136 50.2975 65.3615 50.6559 64.6648 50.8778C63.955 51.0837 63.2514 51.0851 62.5541 50.882C61.8598 50.6498 61.1921 50.1567 60.5511 49.4024L50.8633 37.5099L52.3517 35.4199ZM59.489 35.2698L60.8367 36.9242L52.1571 43.9947L50.8094 42.3403L59.489 35.2698Z" fill="white"/>
<path d="M68.0122 29.3771C69.2698 28.628 70.5403 28.2431 71.8239 28.2224C73.1252 28.1911 74.3616 28.5344 75.5332 29.2524C76.6943 29.9526 77.7022 31.02 78.5568 32.4547C79.4115 33.8894 79.8756 35.2928 79.949 36.665C80.0119 38.0194 79.7199 39.2613 79.0728 40.3907C78.4434 41.5096 77.4999 42.4436 76.2424 43.1927C75.0025 43.9313 73.7319 44.3163 72.4307 44.3475C71.1294 44.3788 69.8982 44.0443 68.7372 43.3441C67.5655 42.6261 66.5524 41.5498 65.6977 40.1151C64.8431 38.6804 64.3843 37.2859 64.3214 35.9315C64.2479 34.5594 64.5347 33.3086 65.1818 32.1792C65.8289 31.0498 66.7723 30.1157 68.0122 29.3771ZM69.1043 31.2104C68.2009 31.7485 67.5518 32.4112 67.1569 33.1984C66.7619 33.9856 66.6141 34.8656 66.7136 35.8383C66.8202 36.7826 67.1901 37.7862 67.8232 38.849C68.4457 39.894 69.1521 40.6971 69.9424 41.2582C70.7503 41.8088 71.5945 42.0979 72.4748 42.1254C73.3551 42.1529 74.247 41.8976 75.1503 41.3595C76.0536 40.8214 76.7028 40.1587 77.0977 39.3715C77.4927 38.5842 77.6316 37.7095 77.5144 36.7474C77.4149 35.7748 77.0539 34.7659 76.4314 33.7209C75.7983 32.6582 75.083 31.8604 74.2856 31.3275C73.4954 30.7663 72.6601 30.472 71.7798 30.4445C70.8994 30.4169 70.0076 30.6722 69.1043 31.2104Z" fill="white"/>
<path d="M90.2913 14.8081L95.0467 29.6513C95.2794 30.3778 95.6586 30.8517 96.1841 31.073C96.7097 31.2943 97.2964 31.3012 97.9443 31.0936C98.5137 30.9112 98.9731 30.6558 99.3225 30.3273C99.6719 29.9989 99.96 29.6143 100.187 29.1736L101.644 30.8826C101.324 31.4396 100.888 31.9366 100.335 32.3735C99.8021 32.8041 99.133 33.1483 98.328 33.4062C97.5819 33.6453 96.844 33.7409 96.1143 33.6933C95.3783 33.626 94.7228 33.3705 94.1477 32.927C93.5859 32.4575 93.1443 31.7546 92.8227 30.8185L88.1428 16.2108L90.2913 14.8081ZM96.9912 17.2729L97.6422 19.305L86.981 22.7206L86.3299 20.6885L96.9912 17.2729Z" fill="white"/>
<path d="M111.103 20.0958C110.908 18.9577 110.454 18.136 109.74 17.6306C109.022 17.1048 108.105 16.9375 106.987 17.1286C105.93 17.3093 105.076 17.6959 104.425 18.2884C103.769 18.8606 103.356 19.6842 103.184 20.7594L100.994 19.8789C101.206 18.6713 101.802 17.6283 102.781 16.7497C103.757 15.8508 105.058 15.2624 106.683 14.9844C107.781 14.7967 108.809 14.8195 109.77 15.0528C110.726 15.2657 111.525 15.7148 112.165 16.4002C112.822 17.0618 113.253 17.9921 113.458 19.1911L114.719 26.568C114.844 27.2996 115.293 27.5993 116.065 27.4673C116.451 27.4013 116.818 27.2862 117.167 27.122L117.373 29.0633C117.002 29.336 116.491 29.528 115.84 29.6392C115.251 29.7399 114.704 29.7185 114.198 29.5749C113.692 29.4313 113.269 29.1585 112.928 28.7566C112.584 28.3343 112.353 27.7777 112.235 27.0868L112.183 26.782L112.808 26.7692C112.7 27.6034 112.395 28.325 111.892 28.9338C111.386 29.5223 110.788 30.001 110.098 30.37C109.405 30.7186 108.703 30.9537 107.991 31.0753C107.097 31.2282 106.238 31.2183 105.414 31.0455C104.589 30.8727 103.891 30.5214 103.32 29.9917C102.765 29.4381 102.409 28.7041 102.253 27.7896C102.058 26.6516 102.274 25.6525 102.901 24.7923C103.545 23.9084 104.525 23.2179 105.841 22.7209L111.674 20.5001L112.018 22.512L107.282 24.3571C106.321 24.7305 105.628 25.1419 105.203 25.5911C104.777 26.0403 104.62 26.59 104.732 27.2403C104.839 27.8703 105.172 28.3468 105.729 28.6699C106.303 28.9691 107.047 29.0405 107.962 28.8842C108.551 28.7834 109.098 28.6167 109.602 28.3841C110.123 28.1277 110.571 27.8107 110.945 27.4329C111.316 27.0347 111.584 26.5811 111.748 26.072C111.908 25.5426 111.933 24.9527 111.822 24.3024L111.103 20.0958Z" fill="white"/>
<path d="M131.65 13.5596L125.074 20.3418L124.496 20.9384L119.503 26.0879L119.455 22.9957L128.527 13.6078L131.65 13.5596ZM120.44 6.61897L120.788 29.1919L118.314 29.23L117.966 6.65716L120.44 6.61897ZM125.271 19.0707L132.26 29.0147L129.261 29.061L123.221 20.4941L125.271 19.0707Z" fill="white"/>
<path d="M140.38 30.5235C138.932 30.3045 137.686 29.7926 136.64 28.988C135.614 28.1864 134.875 27.1466 134.422 25.8687C133.972 24.5703 133.872 23.0956 134.122 21.4444C134.372 19.7932 134.902 18.4243 135.713 17.3376C136.527 16.2305 137.532 15.4443 138.729 14.9789C139.925 14.5136 141.226 14.3873 142.633 14.6002C144.06 14.8161 145.227 15.3054 146.133 16.0681C147.06 16.8339 147.708 17.7869 148.077 18.9271C148.45 20.047 148.538 21.2592 148.34 22.5638C148.288 22.9104 148.23 23.2248 148.166 23.5071C148.103 23.7894 148.034 24.0396 147.959 24.2576L135.606 22.3883L135.934 20.2173L147.217 21.9247L145.926 21.9796C146.149 20.5119 145.912 19.3188 145.217 18.4004C144.542 17.4851 143.553 16.9288 142.248 16.7313C141.249 16.5802 140.347 16.6835 139.542 17.0413C138.761 17.3818 138.1 17.9595 137.56 18.7743C137.043 19.5719 136.692 20.5822 136.507 21.8053C136.325 23.008 136.372 24.0785 136.647 25.0167C136.922 25.955 137.391 26.7141 138.054 27.294C138.74 27.8566 139.603 28.2165 140.643 28.3738C141.764 28.5435 142.703 28.4667 143.461 28.1435C144.239 27.8234 144.898 27.3288 145.437 26.6597L147.192 28.0826C146.7 28.7171 146.11 29.2429 145.421 29.66C144.753 30.0801 143.989 30.3712 143.131 30.5332C142.296 30.6779 141.379 30.6747 140.38 30.5235Z" fill="white"/>
<path d="M169.064 28.2207C169.502 27.1524 169.552 26.2148 169.214 25.408C168.884 24.582 168.195 23.9541 167.146 23.5241C166.154 23.1176 165.224 22.9929 164.358 23.1503C163.499 23.2885 162.712 23.7681 161.997 24.5891L160.606 22.6822C161.425 21.7702 162.483 21.201 163.779 20.9746C165.083 20.729 166.498 20.919 168.024 21.5444C169.054 21.9666 169.914 22.5309 170.605 23.2374C171.304 23.9248 171.743 24.7287 171.923 25.649C172.13 26.5582 172.003 27.5755 171.541 28.701L168.703 35.6261C168.422 36.3128 168.644 36.8048 169.369 37.1018C169.731 37.2504 170.103 37.3473 170.486 37.3927L169.633 39.1486C169.173 39.183 168.638 39.0751 168.027 38.8249C167.474 38.5982 167.021 38.29 166.668 37.9003C166.316 37.5107 166.101 37.0552 166.025 36.5338C165.957 35.9934 166.056 35.3989 166.322 34.7503L166.439 34.4641L166.976 34.7845C166.442 35.4347 165.801 35.8849 165.052 36.1351C164.311 36.3662 163.551 36.4555 162.77 36.403C161.997 36.3314 161.277 36.1588 160.609 35.8852C159.77 35.5412 159.046 35.0776 158.439 34.4943C157.831 33.9111 157.425 33.2434 157.221 32.4913C157.044 31.7279 157.131 30.917 157.483 30.0585C157.92 28.9902 158.633 28.2572 159.62 27.8597C160.635 27.451 161.832 27.3845 163.211 27.6603L169.335 28.8662L168.561 30.7549L163.566 29.8111C162.554 29.6188 161.748 29.6005 161.149 29.7563C160.551 29.9121 160.126 30.2952 159.876 30.9056C159.634 31.497 159.663 32.0773 159.965 32.6465C160.293 33.2044 160.887 33.6593 161.745 34.0111C162.298 34.2378 162.85 34.386 163.401 34.4558C163.979 34.5142 164.526 34.4825 165.044 34.3605C165.57 34.2194 166.037 33.9764 166.446 33.6315C166.862 33.2674 167.196 32.7802 167.446 32.1697L169.064 28.2207Z" fill="white"/>
<path d="M191.909 26.5396L181.612 42.0868C181.179 42.7399 180.998 43.2751 181.068 43.6923C181.149 44.0924 181.456 44.4688 181.989 44.8218C182.333 45.0495 182.633 45.2115 182.891 45.3079C183.149 45.4044 183.512 45.5091 183.981 45.622L182.451 47.2048C182.096 47.143 181.738 47.0297 181.377 46.865C181.005 46.7174 180.647 46.5298 180.304 46.3021C179.255 45.6076 178.661 44.806 178.521 43.8973C178.398 42.9999 178.724 41.9668 179.498 40.798L189.847 25.1735L191.909 26.5396Z" fill="white"/>
<path d="M199.287 40.7003C200.391 41.6615 201.153 42.7486 201.573 43.9617C202.009 45.1883 202.068 46.4702 201.752 47.8072C201.449 49.1288 200.749 50.4193 199.652 51.6788C198.556 52.9383 197.367 53.817 196.086 54.3147C194.819 54.7969 193.548 54.9068 192.273 54.6442C191.014 54.3952 189.832 53.7901 188.728 52.829C187.64 51.8813 186.878 50.7942 186.442 49.5676C186.006 48.341 185.94 47.0669 186.243 45.7454C186.56 44.4083 187.267 43.11 188.363 41.8504C189.46 40.5909 190.642 39.7201 191.909 39.2379C193.19 38.7401 194.468 38.6225 195.742 38.885C197.017 39.1476 198.199 39.7527 199.287 40.7003ZM197.886 42.3097C197.093 41.6193 196.261 41.2092 195.39 41.0795C194.519 40.9498 193.637 41.0838 192.744 41.4817C191.88 41.8776 191.041 42.542 190.229 43.475C189.43 44.3924 188.888 45.314 188.601 46.2399C188.33 47.1793 188.319 48.0715 188.567 48.9165C188.815 49.7615 189.336 50.5292 190.129 51.2196C190.922 51.91 191.754 52.3201 192.625 52.4498C193.497 52.5795 194.371 52.4387 195.249 52.0273C196.142 51.6294 196.988 50.9717 197.786 50.0543C198.599 49.1213 199.133 48.1929 199.391 47.2691C199.678 46.3432 199.697 45.4578 199.448 44.6128C199.2 43.7678 198.679 43.0001 197.886 42.3097Z" fill="white"/>
<path d="M212.948 54.7759C213.869 55.9141 214.43 57.1171 214.633 58.3846C214.849 59.6682 214.685 60.9409 214.141 62.2027C213.613 63.4516 212.7 64.601 211.402 65.651C210.103 66.701 208.78 67.3599 207.432 67.6278C206.1 67.8826 204.83 67.7701 203.62 67.2902C202.423 66.8263 201.364 66.0253 200.444 64.887C199.536 63.7648 198.974 62.5619 198.758 61.2783C198.543 59.9947 198.699 58.7284 199.227 57.4796C199.771 56.2178 200.692 55.0619 201.99 54.0119C203.289 52.9619 204.604 52.3095 205.936 52.0546C207.284 51.7868 208.562 51.8928 209.772 52.3727C210.982 52.8526 212.041 53.6537 212.948 54.7759ZM211.289 56.1176C210.628 55.2999 209.88 54.7516 209.044 54.4726C208.209 54.1936 207.317 54.1725 206.368 54.4093C205.449 54.6491 204.508 55.1579 203.546 55.9357C202.6 56.7005 201.906 57.5139 201.463 58.376C201.032 59.254 200.866 60.1307 200.964 61.006C201.062 61.8813 201.442 62.7277 202.103 63.5453C202.764 64.363 203.512 64.9113 204.348 65.1903C205.183 65.4693 206.069 65.4824 207.004 65.2296C207.953 64.9928 208.9 64.492 209.846 63.7272C210.808 62.9494 211.496 62.128 211.91 61.2629C212.353 60.4009 212.526 59.5322 212.428 58.6569C212.33 57.7816 211.95 56.9352 211.289 56.1176Z" fill="white"/>
<path d="M227.41 77.78L218.315 75.2245L217.515 74.9997L210.61 73.0595L213.307 71.5458L225.881 75.0562L227.41 77.78ZM228.178 64.6171L208.492 75.667L207.281 73.5096L226.967 62.4597L228.178 64.6171ZM219.527 74.7927L214.108 85.672L212.639 83.0562L217.299 73.667L219.527 74.7927Z" fill="white"/>
<path d="M228.879 100.665L226.415 101.383L223.559 91.5857L226.024 90.8675L228.879 100.665Z" fill="white"/>
</svg>
