<svg width="179" height="179" viewBox="0 0 179 179" fill="none" xmlns="http://www.w3.org/2000/svg">
<path d="M131.763 167.441C131.1 167.785 131.155 167.897 131.79 167.58C131.995 167.499 132.168 167.384 132.319 167.247C132.32 167.13 132.32 167.13 131.763 167.441ZM133.1 166.732C132.782 166.99 132.782 166.99 133.16 166.821C133.361 166.706 133.539 166.597 133.539 166.564C133.54 166.414 133.451 166.447 133.1 166.732ZM133.969 166.218C133.651 166.476 133.651 166.476 134.029 166.307C134.235 166.193 134.408 166.072 134.408 166.044C134.41 165.906 134.321 165.933 133.969 166.218ZM134.849 165.71C134.531 165.968 134.531 165.968 134.899 165.793C135.105 165.684 135.277 165.569 135.278 165.536C135.279 165.397 135.19 165.424 134.849 165.71ZM136.037 164.938C135.429 165.338 135.216 165.596 135.773 165.313C136.146 165.089 136.783 164.595 136.672 164.594C136.433 164.681 136.232 164.829 136.031 164.938L136.037 164.938ZM84.3942 0.737818C83.9893 0.762136 82.7742 0.862812 81.7089 0.942569C56.4745 3.01478 32.7697 16.3887 17.6411 37.1703C9.27834 48.5607 3.7996 61.8273 1.65843 75.7872C0.902203 80.6601 0.801375 82.1009 0.74576 88.7152C0.690193 95.3239 0.766966 96.744 1.44115 101.629C5.98996 134.996 29.4619 163.171 61.509 173.809C67.2762 175.704 73.3253 177.03 80.2213 177.87C82.9022 178.181 94.5063 178.278 97.1922 178.013C109.135 176.782 119.233 173.923 129.244 168.923C130.781 168.16 131.071 167.957 130.867 167.783C126.043 161.305 121.307 154.823 116.566 148.285L102.55 129.021L85.0129 102.564C79.1657 93.7104 73.2961 84.8784 67.3318 76.1121C67.2708 76.1116 67.0948 87.8037 66.9417 102.063C66.6707 127.039 66.6621 128.054 66.3413 128.628C66.0194 129.318 65.4934 129.891 64.7977 130.206C64.2466 130.462 63.7527 130.514 61.1303 130.492L58.1309 130.466L57.3532 129.972C56.868 129.652 56.4669 129.21 56.2107 128.693L55.8403 127.908L56.1603 93.14L56.5136 58.3726L57.0684 57.6842C57.4212 57.2602 57.8566 56.9146 58.3467 56.6581C59.0759 56.3149 59.3647 56.2619 62.3641 56.2871C65.8847 56.3167 66.4657 56.4602 67.383 57.4826C74.4783 68.2545 81.5512 79.0539 88.5073 89.8856C99.8868 107.458 115.421 131.436 123.057 143.199L136.943 164.602L137.64 164.148C144.437 159.697 150.63 154.382 155.988 148.306C167.272 135.603 174.657 119.924 177.254 103.146C178.01 98.2731 178.111 96.8268 178.167 90.2181C178.222 83.6038 178.145 82.1893 177.471 77.3043C172.922 43.9374 149.45 15.7618 117.403 5.11839C111.409 3.16618 105.238 1.81686 98.9846 1.09892C97.3062 0.91292 85.8424 0.611379 84.3997 0.748953L84.3942 0.737818ZM120.241 54.6945C121.075 55.1008 121.701 55.8601 121.982 56.7274C122.128 57.1944 122.074 66.836 121.864 88.5526L121.541 119.733L116.128 111.259L110.683 102.78L110.873 80.1432C110.996 65.4676 111.127 57.2405 111.208 56.8364C111.476 55.9127 112.115 55.1419 112.961 54.6611C113.652 54.3175 113.918 54.2921 116.663 54.3151C119.23 54.3367 119.667 54.3681 120.241 54.6945Z" fill="black"/>
</svg>
